<svg width="92" height="92" viewBox="0 0 92 92" fill="none" xmlns="http://www.w3.org/2000/svg">
<rect width="92" height="92" rx="46" fill="#E0F5E0"/>
<path d="M78.8346 46C78.8346 64.1333 64.1347 78.8333 46.0013 78.8333C27.868 78.8333 13.168 64.1333 13.168 46C13.168 27.8666 27.868 13.1666 46.0013 13.1666C64.1347 13.1666 78.8346 27.8666 78.8346 46Z" fill="#3CC13B" stroke="#3CC13B"/>
<path d="M40.9113 52.2535L41.2648 52.6071L41.6184 52.2535L58.7517 35.1202C59.5231 34.3488 60.8066 34.3488 61.578 35.1202C62.3494 35.8916 62.3494 37.175 61.578 37.9464L42.678 56.8464C42.304 57.2204 41.7974 57.4333 41.2648 57.4333C40.7323 57.4333 40.2257 57.2204 39.8517 56.8464L30.4184 47.4131C29.647 46.6417 29.647 45.3583 30.4184 44.5868C31.1898 43.8154 32.4732 43.8154 33.2446 44.5868L40.9113 52.2535Z" fill="white" stroke="white"/>
</svg>